<svg id="visual" viewBox="0 0 900 900" width="900" height="900" xmlns="http://www.w3.org/2000/svg" xmlns:xlink="http://www.w3.org/1999/xlink" version="1.1"><path d="M476 900L494.5 862.5C513 825 550 750 524.7 675C499.3 600 411.7 525 348.5 450C285.3 375 246.7 300 255.2 225C263.7 150 319.3 75 347.2 37.5L375 0L900 0L900 37.5C900 75 900 150 900 225C900 300 900 375 900 450C900 525 900 600 900 675C900 750 900 825 900 862.5L900 900Z" fill="#002233" stroke-linecap="round" stroke-linejoin="miter"></path></svg>