<svg id="visual" viewBox="0 0 960 540" width="960" height="540" xmlns="http://www.w3.org/2000/svg" xmlns:xlink="http://www.w3.org/1999/xlink" version="1.1"><path d="M745 540L752.2 517.5C759.3 495 773.7 450 745 405C716.3 360 644.7 315 592.7 270C540.7 225 508.3 180 502 135C495.7 90 515.3 45 525.2 22.5L535 0L960 0L960 22.5C960 45 960 90 960 135C960 180 960 225 960 270C960 315 960 360 960 405C960 450 960 495 960 517.5L960 540Z" fill="#002233" stroke-linecap="round" stroke-linejoin="miter"></path></svg>