<svg id="visual" viewBox="0 0 960 540" width="960" height="540" xmlns="http://www.w3.org/2000/svg" xmlns:xlink="http://www.w3.org/1999/xlink" version="1.1"><path d="M646 540L652.3 517.5C658.7 495 671.3 450 658.5 405C645.7 360 607.3 315 582.2 270C557 225 545 180 561.2 135C577.3 90 621.7 45 643.8 22.5L666 0L960 0L960 22.5C960 45 960 90 960 135C960 180 960 225 960 270C960 315 960 360 960 405C960 450 960 495 960 517.5L960 540Z" fill="#002233" stroke-linecap="round" stroke-linejoin="miter"></path></svg>